<svg xmlns="http://www.w3.org/2000/svg" xmlns:xlink="http://www.w3.org/1999/xlink" viewBox="0 0 614.07 671.09"><defs><style>.cls-1{fill:none;}.cls-2{clip-path:url(#clip-path);}.cls-3{fill:#f4d221;}</style><clipPath id="clip-path" transform="translate(0 -0.91)"><rect class="cls-1" x="0.12" width="614.88" height="672.96"/></clipPath></defs><title>资源 21</title><g id="图层_2" data-name="图层 2"><g id="图层_1-2" data-name="图层 1"><g class="cls-2"><path class="cls-3" d="M585.48,58H542.64v71.35c0,89.95-41.62,170.72-113.13,214.47C501,387.57,542.64,467.69,542.64,557.72V614.9h42.84c14.67,0,28.18,10.24,28.18,29.41,0,15.24-11.88,27.69-26.54,27.69H26.54C11.88,672,0,659.63,0,644.31S10.4,614.9,28.59,614.9H71.43V557.8c0-89.94,44.41-170.06,115.84-213.89C115.84,300.17,71.43,219.39,71.43,129.44V58.09H28.59C13.93,58.09.41,43.92.41,28.6S13.93.91,28.59.91H587.53c14.66,0,26.54,13.27,26.54,28.59S600.15,58,585.48,58Zm-99.94,0h-357v71.35c0,88.8,47,166,129.6,187.68a25.23,25.23,0,0,1,9.17,4.51l.09.08c.24.16.41.32.65.49s.33.24.49.41l.25.24a28.1,28.1,0,0,1,8.6,14.34,29,29,0,0,1-1.47,17.94c0,.08-.09.08-.09.17a3.69,3.69,0,0,1-.41.82c-.08.16-.16.24-.16.4a2.27,2.27,0,0,1-.33.66c-.16.24-.24.49-.4.74-.09.08-.09.24-.17.32a18.58,18.58,0,0,1-1.39,2.13v.09l-.74,1c0,.08-.08.08-.08.16-.25.25-.41.58-.66.82l-.16.17a7.43,7.43,0,0,0-.74.81l-.16.17a9.05,9.05,0,0,1-.82.82c-.66.57-1.23,1.14-2,1.72l-.08.08a7.91,7.91,0,0,0-.9.74l-.08.08a27.09,27.09,0,0,1-9.42,4.18c-82.09,22-128.62,98.38-128.62,186.77v57h357V557.8c0-88.8-47.35-165.39-129.93-187a13.46,13.46,0,0,1-1.31-.41c-.16,0-.24-.08-.32-.08l-.74-.25c-.25-.08-.41-.16-.66-.24s-.24-.08-.4-.17a26,26,0,0,1-8.69-5.89l-.08-.09c-.16-.16-.33-.41-.49-.57s-.25-.25-.33-.41-.25-.33-.41-.41-.33-.41-.49-.57a1,1,0,0,1-.25-.33c-.25-.33-.49-.66-.65-.9a30.69,30.69,0,0,1-2.63-4.51c-.16-.41-.32-.73-.48-1.14a.09.09,0,0,0-.09-.09c-.16-.32-.24-.73-.41-1.06,0-.09,0-.09-.08-.17a5.9,5.9,0,0,1-.33-1.06c0-.08,0-.08-.08-.16-.16-.5-.25-.91-.41-1.4a4.18,4.18,0,0,1-.16-1,.27.27,0,0,0-.09-.24,5,5,0,0,1-.16-1.07.31.31,0,0,0-.08-.25c-.08-.41-.08-.81-.17-1.14V347c-1.39-13.51,7-26.29,19.91-29.65,82.58-22,130-99.21,130-187.93ZM344.64,275.67A68.77,68.77,0,0,0,307,301.23a73.61,73.61,0,0,0-9.74-10.49l-1.89-1.63-1.47-1.32-1.73-1.14a68.55,68.55,0,0,0-23-11c-42.77-11.22-74.55-44.24-89-89.13H433.93c-14.5,44.89-46.37,77.91-89.29,89.13ZM292.94,436.4s2.46-2,2.54-2l.33-.25,1.56-1.31.25-.24a39.85,39.85,0,0,0,3.27-3.12l1.39-1.47,1.89-2.21,2-2.46.65-1,3.93,6,1.72.9.49.49a55.07,55.07,0,0,0,16.8,11.72s1.8.73,2.38,1c.32.16,2,.73,2,.73.9.33,1.88.58,2.79.91C384.78,457.45,414,497,414,560v12.12H200V560c0-62.51,28.68-101.91,75.78-115.76a51.75,51.75,0,0,0,16.14-7.21Z" transform="translate(0 -0.91)"/></g></g></g></svg>