<svg xmlns="http://www.w3.org/2000/svg" viewBox="0 0 190.02 197.79"><defs><style>.cls-1{fill:#ffd904;}</style></defs><title>资源 11</title><g id="图层_2" data-name="图层 2"><g id="图层_1-2" data-name="图层 1"><path class="cls-1" d="M182.71,37a7.29,7.29,0,0,1-5.16-2.14L155.62,12.93A7.3,7.3,0,0,1,166,2.6l21.93,21.92A7.31,7.31,0,0,1,182.71,37ZM7.59,36.54A7.31,7.31,0,0,1,2.42,24.07L24.34,2.14A7.31,7.31,0,0,1,34.68,12.48L12.75,34.4a7.2,7.2,0,0,1-5.16,2.14ZM144,64.09a7.31,7.31,0,1,0-10.34-10.33L104.46,83s0,0,0,.07a21.14,21.14,0,0,0-18.82,0,.16.16,0,0,0,0-.07L63.64,61.06A7.31,7.31,0,0,0,53.3,71.4L75.23,93.32s0,0,.06.05a21.66,21.66,0,0,0-2.2,9.4,21.93,21.93,0,1,0,43.85,0,21.7,21.7,0,0,0-2.21-9.4s0,0,.06-.05L144,64.09Zm-49,46a7.31,7.31,0,1,1,7.31-7.31A7.32,7.32,0,0,1,95,110.09Zm68,58.86a95,95,0,1,0-135.75.36l-11.17,16.9a7.31,7.31,0,0,0,12.19,8.06l10.13-15.34a94.23,94.23,0,0,0,113.5-.29l10.36,15.21a7.36,7.36,0,0,0,6.05,3.19,7.33,7.33,0,0,0,6-11.43L163.05,169ZM14.62,102.77A80.39,80.39,0,1,1,95,183.17a80.48,80.48,0,0,1-80.39-80.4Z"/></g></g></svg>