<svg xmlns="http://www.w3.org/2000/svg" viewBox="0 0 174.88 174.97"><defs><style>.cls-1{fill:#ffd904;}</style></defs><title>资源 1</title><g id="图层_2" data-name="图层 2"><g id="图层_1-2" data-name="图层 1"><path class="cls-1" d="M12.25,175l42.9-42.92,42.29,42.32a20.29,20.29,0,0,0,3.67-2.46,21.66,21.66,0,0,0,0-30.65l-9.18-9.21,61.29-61.32,11.63,11.65a20.14,20.14,0,0,0,3.68-2.45,21.66,21.66,0,0,0,0-30.65L125.65,6.34A21.69,21.69,0,0,0,95,6.34,21.27,21.27,0,0,0,92.55,10l11.64,11.65L42.9,83l-9.2-9.19a21.69,21.69,0,0,0-30.64,0A21.81,21.81,0,0,0,.61,77.47L42.9,119.79,0,162.71V175Z"/></g></g></svg>