<svg xmlns="http://www.w3.org/2000/svg" viewBox="0 0 777.16 817.27"><defs><style>.cls-1{fill:RGBA(240, 240, 240, 1);}</style></defs><title>资源 11</title><g id="图层_2" data-name="图层 2"><g id="图层_1-2" data-name="图层 1"><path class="cls-1" d="M752.69,404.52a24.35,24.35,0,0,0-24.26,24.28A339.93,339.93,0,0,1,148.11,669.16,339.91,339.91,0,0,1,582.22,149.52l-72.4,25.77A24.29,24.29,0,0,0,518,222.42a25.63,25.63,0,0,0,8.12-1.4l113.12-40.41a37.28,37.28,0,0,0,4.41-2,22.15,22.15,0,0,0,6.32-5.42c.2-.2.4-.5.6-.7s.1-.2.2-.2.2-.4.4-.5.2-.4.41-.5a.31.31,0,0,0,.1-.2,6.82,6.82,0,0,0,.5-.7,24.35,24.35,0,0,0,3-7.83,19.35,19.35,0,0,0,.5-4.71V24.27a24.27,24.27,0,1,0-48.54,0V107.9A388.46,388.46,0,0,0,30.79,277.77,380.9,380.9,0,0,0,0,428.8,388.63,388.63,0,0,0,746.58,579.91a386.19,386.19,0,0,0,30.58-151.22,24.69,24.69,0,0,0-24.47-24.16h0Z"/></g></g></svg>