<svg xmlns="http://www.w3.org/2000/svg" width="40" height="40" viewBox="0 0 20 20">
  <metadata><?xpacket begin="﻿" id="W5M0MpCehiHzreSzNTczkc9d"?>
<x:xmpmeta xmlns:x="adobe:ns:meta/" x:xmptk="Adobe XMP Core 5.6-c138 79.159824, 2016/09/14-01:09:01        ">
   <rdf:RDF xmlns:rdf="http://www.w3.org/1999/02/22-rdf-syntax-ns#">
      <rdf:Description rdf:about=""/>
   </rdf:RDF>
</x:xmpmeta>
                                                                                                    
                                                                                                    
                                                                                                    
                                                                                                    
                                                                                                    
                                                                                                    
                                                                                                    
                                                                                                    
                                                                                                    
                                                                                                    
                                                                                                    
                                                                                                    
                                                                                                    
                                                                                                    
                                                                                                    
                                                                                                    
                                                                                                    
                                                                                                    
                                                                                                    
                                                                                                    
                           
<?xpacket end="w"?></metadata>
<defs>
    <style>
      .cls-1 {
        fill: #ffd904;
        fill-rule: evenodd;
      }
    </style>
  </defs>
  <path id="已收藏" class="cls-1" d="M1273.37,68.992a1.613,1.613,0,0,1-.68-0.178l-4.68-2.315-4.72,2.315a1.439,1.439,0,0,1-2.09-1.531l0.97-4.986-3.71-3.419a1.558,1.558,0,0,1-.4-1.5,1.428,1.428,0,0,1,1.19-1l5.15-.926,2.31-4.63a1.462,1.462,0,0,1,1.3-.819,1.414,1.414,0,0,1,1.29.819l2.31,4.63,5.15,0.89a1.377,1.377,0,0,1,1.15,1,1.433,1.433,0,0,1-.36,1.5l-3.71,3.455,0.94,4.986a1.438,1.438,0,0,1-.58,1.424,1.274,1.274,0,0,1-.83.285h0Z" transform="translate(-1258 -49.5)"/>
</svg>
