<svg xmlns="http://www.w3.org/2000/svg" viewBox="0 0 724.37 724.32"><defs><style>.cls-1{fill:#f2c568;}</style></defs><title>资源 1</title><g id="图层_2" data-name="图层 2"><g id="图层_1-2" data-name="图层 1"><path class="cls-1" d="M699.27,366.39a24.48,24.48,0,0,0-24.53,24.43V621.75a53.92,53.92,0,0,1-54,53.75H103a53.92,53.92,0,0,1-54-53.75V136.84a53.89,53.89,0,0,1,54-53.72H271.8a24.44,24.44,0,1,0,0-48.88H103c-56.83,0-103,46-103,102.62V621.73c0,56.57,46.22,102.59,103,102.59H620.76c56.83,0,103-46,103-102.59V390.84a24.5,24.5,0,0,0-24.53-24.44ZM184.43,509.54a24.53,24.53,0,0,0,48.27,8.79c.17-1,19.64-103.76,87.39-205.88,39.43-59.44,87.2-106.71,142-140.47,52.3-32.25,111.43-52.32,176.34-60l-79.87,82a24.49,24.49,0,0,0,35.23,34L717.45,101l.26-.3.39-.39.39-.45.07-.06.37-.43c.13-.16.26-.32.39-.5l.34-.47.41-.56.26-.39.24-.37.11-.15,0-.11.23-.37.37-.65.22-.39.07-.13.28-.54.22-.43c.1-.22.19-.43.28-.65l.21-.5.22-.56.21-.58.17-.52.22-.64.11-.5c.07-.22.12-.43.17-.65l.11-.43,0-.11.13-.64.06-.37,0-.28.09-.5,0-.34c.05-.37.1-.75.13-1.12a3.3,3.3,0,0,1,0-.65v-.49l0-.8,0-1.21v-.11l0-.22c0-.37-.06-.73-.11-1.1v-.13c0-.25-.07-.5-.11-.75l0-.32,0-.15-.11-.64-.09-.39,0-.06,0-.13-.11-.48c-.07-.25-.14-.5-.21-.75a1.19,1.19,0,0,0-.07-.3c-.09-.3-.18-.59-.28-.88a.46.46,0,0,0-.06-.18l-.21-.64,0-.07-.11-.26,0-.09-.26-.64-.15-.39-.32-.67v0q-.63-1.23-1.34-2.39l-.07-.11-.34-.54,0,0L720,70.1l-.22-.28-.15-.21-.15-.22-.15-.21-.41-.5-.22-.24-.11-.15a6.09,6.09,0,0,0-.5-.58A19,19,0,0,0,716.37,66l0,0c-.28-.25-.57-.5-.86-.73l0,0c-.28-.22-.57-.44-.86-.64,0,0,0-.07-.09-.11-.34-.25-.68-.49-1-.71l-.39-.26-.32-.19-.37-.22-.3-.2-.37-.19c-.34-.19-.69-.37-1-.54l-.47-.22-.61-.28-.54-.21-.54-.22-.6-.21c-.27-.1-.54-.2-.82-.28L527,1.25a24.44,24.44,0,1,0-15.44,46.37L584,71.52a466.92,466.92,0,0,0-147.71,58.92C375.39,168,322.53,220.14,279.15,285.53c-73.21,110.37-93.86,219.41-94.7,224Zm0,0"/></g></g></svg>