<svg xmlns="http://www.w3.org/2000/svg" xmlns:xlink="http://www.w3.org/1999/xlink" viewBox="0 0 785.18 819.2"><defs><style>.cls-1{fill:none;}.cls-2{clip-path:url(#clip-path);}.cls-3{fill:RGBA(221, 221, 221, 1);}</style><clipPath id="clip-path" transform="translate(0 -0.52)"><rect class="cls-1" x="0.12" width="785.76" height="820.72"/></clipPath></defs><title>资源 1</title><g id="图层_2" data-name="图层 2"><g id="图层_1-2" data-name="图层 1"><g class="cls-2"><path class="cls-3" d="M289.84,239.33V580.7L563.2,410.14Zm0,0" transform="translate(0 -0.52)"/><path class="cls-3" d="M665,120.29C509.09-35.57,258.93-39.18,98.16,108.71L14.69,25.23V239.07H228.52L146.6,157.14C280.57,36,487.71,39.66,616.78,168.48c133.2,133.2,133.2,349.87,0,482.81-133.2,133.2-349.87,133.2-482.81,0A338,338,0,0,1,75.75,573H0A411.8,411.8,0,0,0,85.79,699.73c160,160,419.43,160,579.43,0s160-419.43-.26-579.43Zm0,0" transform="translate(0 -0.52)"/></g></g></g></svg>