<svg xmlns="http://www.w3.org/2000/svg" width="376" height="26" viewBox="0 0 188 13">
  <metadata><?xpacket begin="﻿" id="W5M0MpCehiHzreSzNTczkc9d"?>
<x:xmpmeta xmlns:x="adobe:ns:meta/" x:xmptk="Adobe XMP Core 5.6-c138 79.159824, 2016/09/14-01:09:01        ">
   <rdf:RDF xmlns:rdf="http://www.w3.org/1999/02/22-rdf-syntax-ns#">
      <rdf:Description rdf:about=""/>
   </rdf:RDF>
</x:xmpmeta>
                                                                                                    
                                                                                                    
                                                                                                    
                                                                                                    
                                                                                                    
                                                                                                    
                                                                                                    
                                                                                                    
                                                                                                    
                                                                                                    
                                                                                                    
                                                                                                    
                                                                                                    
                                                                                                    
                                                                                                    
                                                                                                    
                                                                                                    
                                                                                                    
                                                                                                    
                                                                                                    
                           
<?xpacket end="w"?></metadata>
<defs>
    <style>
      .cls-1 {
        fill: RGBA(255, 72, 0, 1);
        fill-rule: evenodd;
      }
    </style>
  </defs>
  <path id="矩形_22_拷贝_7" data-name="矩形 22 拷贝 7" class="cls-1" d="M986,721h3v6h-3v-6Zm10,1h3v5h-3v-5Zm-5-8h3v13h-3V714Zm25,5h3v8h-3v-8Zm10,0h3v8h-3v-8Zm-5-2h3v10h-3V717Zm24-1h3v11h-3V716Zm10-2h3v13h-3V714Zm-5,4h3v9h-3v-9Zm24,1h3v8h-3v-8Zm10-1h3v9h-3v-9Zm-5,3h3v6h-3v-6Zm24,2h3v4h-3v-4Zm10-4h3v8h-3v-8Zm-5,1h3v7h-3v-7Zm24-1h3v8h-3v-8Zm10,2h3v6h-3v-6Zm-5-5h3v11h-3V716Zm24,3h3v8h-3v-8Zm10,4h3v4h-3v-4Zm-5-9h3v13h-3V714Z" transform="translate(-986 -714)"/>
</svg>
