<svg xmlns="http://www.w3.org/2000/svg" viewBox="0 0 175.2 167.21"><title>资源 1</title><g id="图层_2" data-name="图层 2"><g id="图层_1-2" data-name="图层 1"><path d="M172.6,72.19a8.83,8.83,0,0,0-5-15l-46.25-6.25c-2.5-1.25-5-2.5-6.25-5L95.1,4.69c-2.5-6.25-12.5-6.25-15,0l-20,41.25c-1.25,2.5-3.75,5-6.25,5L7.6,57.19c-7.5,1.25-10,8.75-5,13.75l32.5,32.5c2.5,2.5,2.5,5,2.5,7.5l-7.5,46.25c-1.25,6.25,6.25,12.5,12.5,8.75l41.25-21.25a8,8,0,0,1,7.5,0l41.25,21.25c6.25,3.75,13.75-1.25,12.5-8.75l-7.5-45c0-2.5,0-5,2.5-7.5ZM131.35,95.94c-6.25,6.25-6.25,12.5-6.25,16.25v1.25l5,32.5c0,2.5-2.5,3.75-3.75,2.5l-30-15a23.55,23.55,0,0,0-10-2.5c-3.75,0-6.25,1.25-8.75,2.5l-30,15c-2.5,1.25-5-1.25-3.75-2.5l6.25-33.75v-1.25c0-3.75,0-10-6.25-16.25l-22.5-22.5c-1.25-1.25,0-3.75,2.5-5L55.1,63.44c7.5,0,13.75-6.25,16.25-12.5L85.1,22.19c1.25-2.5,3.75-2.5,5,0l13.75,28.75c2.5,7.5,10,10,13.75,11.25,8.75,2.5,35,5,35,5,2.5,0,3.75,2.5,1.25,5Z"/></g></g></svg>