<svg xmlns="http://www.w3.org/2000/svg" viewBox="0 0 175.1 140.1"><defs><style>.cls-1{fill:#7d858e;}</style></defs><title>资源 1</title><g id="图层_2" data-name="图层 2"><g id="图层_1-2" data-name="图层 1"><path class="cls-1" d="M68.4.2H68C66.6.1,65.2,0,63.8,0,39.3,0,19.3,19.3,19.3,42.9A42.46,42.46,0,0,0,40.8,79.6,63.2,63.2,0,0,0,20.6,91.7,61.45,61.45,0,0,0,.3,128.8a4.67,4.67,0,0,0-.3,1.7l.1.6v.1a5.27,5.27,0,0,0,5.4,5.2,5.34,5.34,0,0,0,5.4-5.2l-.1-.6v-.1a1.7,1.7,0,0,0-.1-.7C14.4,105.4,35.6,87,61,85.7h.8a5.23,5.23,0,0,0,5.3-5.1,5,5,0,0,0-2.9-4.5,6.64,6.64,0,0,0-2-.6h-.5a2,2,0,0,0-.8.1h-.4C43.2,74.1,29.6,60,29.6,42.9c0-18.1,15.3-32.8,34-32.8,1.7,0,4.9.3,4.9.3a5.19,5.19,0,0,0,5.1-5.1A5,5,0,0,0,68.4.2Z"/><path class="cls-1" d="M175,134.3a5.9,5.9,0,0,0-.2-1.4,61.15,61.15,0,0,0-20.3-37.5,65.07,65.07,0,0,0-20.2-12.1,42.58,42.58,0,0,0,21.5-36.7c0-23.7-19.9-42.9-44.5-42.9S66.8,23,66.8,46.6A42.46,42.46,0,0,0,88.3,83.3,63.2,63.2,0,0,0,68.1,95.4a61.45,61.45,0,0,0-20.3,37.1,4.67,4.67,0,0,0-.3,1.7l.1.6v.1a5.27,5.27,0,0,0,5.4,5.2,5.34,5.34,0,0,0,5.4-5.2l-.1-.6v-.1a1.7,1.7,0,0,0-.1-.7c3.7-24.4,24.8-42.8,50.3-44.1a24.37,24.37,0,0,0,2.7.1,26.2,26.2,0,0,0,2.8-.1c25.4,1.3,46.6,19.8,50.3,44.2h.1v.6l.1.6v.1a5.32,5.32,0,0,0,5.3,5.2,5.23,5.23,0,0,0,5.3-5.1l-.1-.7ZM77.2,46.6c0-18.1,15.3-32.8,34-32.8s34,14.7,34,32.8c0,17.1-13.6,31.2-30.9,32.7-1,0-2.1-.1-3.1-.1s-2.1,0-3.1.1C90.9,77.8,77.2,63.7,77.2,46.6Z"/></g></g></svg>